<mxfile host="app.diagrams.net" modified="2024-06-09T20:12:30.466Z" agent="Mozilla/5.0 (Windows NT 10.0; Win64; x64) AppleWebKit/537.36 (KHTML, like Gecko) Chrome/125.0.0.0 Safari/537.36" etag="nPiBAtSPowPz2Mn9q7js" version="24.5.2" type="github">
  <diagram name="Page-1" id="b5b7bab2-c9e2-2cf4-8b2a-24fd1a2a6d21">
    <mxGraphModel dx="1221" dy="652" grid="1" gridSize="10" guides="1" tooltips="1" connect="1" arrows="1" fold="1" page="1" pageScale="1" pageWidth="827" pageHeight="1169" background="none" math="0" shadow="0">
      <root>
        <mxCell id="0" />
        <mxCell id="1" parent="0" />
        <mxCell id="NT-Q8TbCKtP1dzU-l-f0-1" value="" style="shape=table;startSize=0;container=1;collapsible=0;childLayout=tableLayout;" parent="1" vertex="1">
          <mxGeometry x="160" y="10" width="550" height="40" as="geometry" />
        </mxCell>
        <mxCell id="NT-Q8TbCKtP1dzU-l-f0-2" value="" style="shape=tableRow;horizontal=0;startSize=0;swimlaneHead=0;swimlaneBody=0;strokeColor=inherit;top=0;left=0;bottom=0;right=0;collapsible=0;dropTarget=0;fillColor=none;points=[[0,0.5],[1,0.5]];portConstraint=eastwest;" parent="NT-Q8TbCKtP1dzU-l-f0-1" vertex="1">
          <mxGeometry width="550" height="40" as="geometry" />
        </mxCell>
        <mxCell id="NT-Q8TbCKtP1dzU-l-f0-3" value="&lt;font style=&quot;font-size: 18px;&quot;&gt;&lt;b&gt;UML Діаграми класів для поточної реалізаці&lt;/b&gt;&lt;/font&gt;" style="shape=partialRectangle;html=1;whiteSpace=wrap;connectable=0;strokeColor=inherit;overflow=hidden;fillColor=none;top=0;left=0;bottom=0;right=0;pointerEvents=1;" parent="NT-Q8TbCKtP1dzU-l-f0-2" vertex="1">
          <mxGeometry width="550" height="40" as="geometry">
            <mxRectangle width="550" height="40" as="alternateBounds" />
          </mxGeometry>
        </mxCell>
        <mxCell id="NT-Q8TbCKtP1dzU-l-f0-13" value="" style="endArrow=none;html=1;rounded=0;" parent="1" edge="1">
          <mxGeometry width="50" height="50" relative="1" as="geometry">
            <mxPoint x="340" y="250" as="sourcePoint" />
            <mxPoint x="340" y="250" as="targetPoint" />
          </mxGeometry>
        </mxCell>
        <mxCell id="NT-Q8TbCKtP1dzU-l-f0-16" value="&lt;font style=&quot;font-size: 18px;&quot;&gt;&lt;b&gt;Field&lt;/b&gt;&lt;/font&gt;" style="swimlane;fontStyle=0;childLayout=stackLayout;horizontal=1;startSize=30;horizontalStack=0;resizeParent=1;resizeParentMax=0;resizeLast=0;collapsible=1;marginBottom=0;whiteSpace=wrap;html=1;" parent="1" vertex="1">
          <mxGeometry x="319" y="60" width="190" height="60" as="geometry">
            <mxRectangle x="319" y="60" width="80" height="40" as="alternateBounds" />
          </mxGeometry>
        </mxCell>
        <mxCell id="NT-Q8TbCKtP1dzU-l-f0-17" value="&lt;font style=&quot;font-size: 14px;&quot;&gt;+ init (self, value: str)&lt;/font&gt;" style="text;strokeColor=none;fillColor=none;align=left;verticalAlign=middle;spacingLeft=4;spacingRight=4;overflow=hidden;points=[[0,0.5],[1,0.5]];portConstraint=eastwest;rotatable=0;whiteSpace=wrap;html=1;" parent="NT-Q8TbCKtP1dzU-l-f0-16" vertex="1">
          <mxGeometry y="30" width="190" height="30" as="geometry" />
        </mxCell>
        <mxCell id="NT-Q8TbCKtP1dzU-l-f0-24" value="&lt;font style=&quot;font-size: 18px;&quot;&gt;&lt;b&gt;Birthday&lt;/b&gt;&lt;/font&gt;" style="swimlane;fontStyle=0;childLayout=stackLayout;horizontal=1;startSize=30;horizontalStack=0;resizeParent=1;resizeParentMax=0;resizeLast=0;collapsible=1;marginBottom=0;whiteSpace=wrap;html=1;" parent="1" vertex="1">
          <mxGeometry x="40" y="160" width="200" height="90" as="geometry" />
        </mxCell>
        <mxCell id="NT-Q8TbCKtP1dzU-l-f0-41" value="" style="endArrow=none;html=1;rounded=0;entryX=0.99;entryY=0.022;entryDx=0;entryDy=0;entryPerimeter=0;exitX=0;exitY=0.022;exitDx=0;exitDy=0;exitPerimeter=0;" parent="NT-Q8TbCKtP1dzU-l-f0-24" source="NT-Q8TbCKtP1dzU-l-f0-26" target="NT-Q8TbCKtP1dzU-l-f0-26" edge="1">
          <mxGeometry width="50" height="50" relative="1" as="geometry">
            <mxPoint x="20" y="70" as="sourcePoint" />
            <mxPoint x="70" y="20" as="targetPoint" />
            <Array as="points">
              <mxPoint x="50" y="60" />
            </Array>
          </mxGeometry>
        </mxCell>
        <mxCell id="NT-Q8TbCKtP1dzU-l-f0-25" value="+ init (self, value: str)" style="text;strokeColor=none;fillColor=none;align=left;verticalAlign=middle;spacingLeft=4;spacingRight=4;overflow=hidden;points=[[0,0.5],[1,0.5]];portConstraint=eastwest;rotatable=0;whiteSpace=wrap;html=1;" parent="NT-Q8TbCKtP1dzU-l-f0-24" vertex="1">
          <mxGeometry y="30" width="200" height="30" as="geometry" />
        </mxCell>
        <mxCell id="NT-Q8TbCKtP1dzU-l-f0-26" value="+ ValueError (date)" style="text;strokeColor=none;fillColor=none;align=left;verticalAlign=middle;spacingLeft=4;spacingRight=4;overflow=hidden;points=[[0,0.5],[1,0.5]];portConstraint=eastwest;rotatable=0;whiteSpace=wrap;html=1;" parent="NT-Q8TbCKtP1dzU-l-f0-24" vertex="1">
          <mxGeometry y="60" width="200" height="30" as="geometry" />
        </mxCell>
        <mxCell id="NT-Q8TbCKtP1dzU-l-f0-28" value="&lt;font style=&quot;font-size: 18px;&quot;&gt;&lt;b&gt;Name&lt;/b&gt;&lt;/font&gt;" style="swimlane;fontStyle=0;childLayout=stackLayout;horizontal=1;startSize=30;horizontalStack=0;resizeParent=1;resizeParentMax=0;resizeLast=0;collapsible=1;marginBottom=0;whiteSpace=wrap;html=1;" parent="1" vertex="1">
          <mxGeometry x="320" y="160" width="160" height="60" as="geometry" />
        </mxCell>
        <mxCell id="NT-Q8TbCKtP1dzU-l-f0-29" value="pass" style="text;strokeColor=none;fillColor=none;align=left;verticalAlign=middle;spacingLeft=4;spacingRight=4;overflow=hidden;points=[[0,0.5],[1,0.5]];portConstraint=eastwest;rotatable=0;whiteSpace=wrap;html=1;" parent="NT-Q8TbCKtP1dzU-l-f0-28" vertex="1">
          <mxGeometry y="30" width="160" height="30" as="geometry" />
        </mxCell>
        <mxCell id="NT-Q8TbCKtP1dzU-l-f0-42" value="&lt;font style=&quot;font-size: 18px;&quot;&gt;&lt;b&gt;Phone&lt;/b&gt;&lt;/font&gt;" style="swimlane;fontStyle=0;childLayout=stackLayout;horizontal=1;startSize=30;horizontalStack=0;resizeParent=1;resizeParentMax=0;resizeLast=0;collapsible=1;marginBottom=0;whiteSpace=wrap;html=1;" parent="1" vertex="1">
          <mxGeometry x="560" y="160" width="240" height="90" as="geometry" />
        </mxCell>
        <mxCell id="NT-Q8TbCKtP1dzU-l-f0-43" value="" style="endArrow=none;html=1;rounded=0;entryX=0.99;entryY=0.022;entryDx=0;entryDy=0;entryPerimeter=0;exitX=0;exitY=0.022;exitDx=0;exitDy=0;exitPerimeter=0;" parent="NT-Q8TbCKtP1dzU-l-f0-42" source="NT-Q8TbCKtP1dzU-l-f0-45" target="NT-Q8TbCKtP1dzU-l-f0-45" edge="1">
          <mxGeometry width="50" height="50" relative="1" as="geometry">
            <mxPoint x="20" y="70" as="sourcePoint" />
            <mxPoint x="70" y="20" as="targetPoint" />
            <Array as="points">
              <mxPoint x="50" y="60" />
            </Array>
          </mxGeometry>
        </mxCell>
        <mxCell id="NT-Q8TbCKtP1dzU-l-f0-44" value="+ init (self, value: str)" style="text;strokeColor=none;fillColor=none;align=left;verticalAlign=middle;spacingLeft=4;spacingRight=4;overflow=hidden;points=[[0,0.5],[1,0.5]];portConstraint=eastwest;rotatable=0;whiteSpace=wrap;html=1;" parent="NT-Q8TbCKtP1dzU-l-f0-42" vertex="1">
          <mxGeometry y="30" width="240" height="30" as="geometry" />
        </mxCell>
        <mxCell id="NT-Q8TbCKtP1dzU-l-f0-45" value="+ ValueError (phone)" style="text;strokeColor=none;fillColor=none;align=left;verticalAlign=middle;spacingLeft=4;spacingRight=4;overflow=hidden;points=[[0,0.5],[1,0.5]];portConstraint=eastwest;rotatable=0;whiteSpace=wrap;html=1;" parent="NT-Q8TbCKtP1dzU-l-f0-42" vertex="1">
          <mxGeometry y="60" width="240" height="30" as="geometry" />
        </mxCell>
        <mxCell id="NT-Q8TbCKtP1dzU-l-f0-46" value="" style="endArrow=classic;html=1;rounded=0;entryX=0.004;entryY=1.022;entryDx=0;entryDy=0;entryPerimeter=0;" parent="1" target="NT-Q8TbCKtP1dzU-l-f0-17" edge="1">
          <mxGeometry width="50" height="50" relative="1" as="geometry">
            <mxPoint x="240" y="160" as="sourcePoint" />
            <mxPoint x="290" y="110" as="targetPoint" />
            <Array as="points" />
          </mxGeometry>
        </mxCell>
        <mxCell id="NT-Q8TbCKtP1dzU-l-f0-47" value="" style="endArrow=classic;html=1;rounded=0;" parent="1" edge="1">
          <mxGeometry width="50" height="50" relative="1" as="geometry">
            <mxPoint x="410" y="160" as="sourcePoint" />
            <mxPoint x="410" y="120" as="targetPoint" />
          </mxGeometry>
        </mxCell>
        <mxCell id="NT-Q8TbCKtP1dzU-l-f0-48" value="" style="endArrow=classic;html=1;rounded=0;entryX=1.005;entryY=1;entryDx=0;entryDy=0;entryPerimeter=0;" parent="1" target="NT-Q8TbCKtP1dzU-l-f0-17" edge="1">
          <mxGeometry width="50" height="50" relative="1" as="geometry">
            <mxPoint x="560" y="160" as="sourcePoint" />
            <mxPoint x="610" y="110" as="targetPoint" />
          </mxGeometry>
        </mxCell>
        <mxCell id="qCKaYqf2jKuYFBcPwWcD-1" value="" style="shape=table;startSize=0;container=1;collapsible=0;childLayout=tableLayout;" vertex="1" parent="1">
          <mxGeometry x="560" y="320" width="240" height="280" as="geometry" />
        </mxCell>
        <mxCell id="qCKaYqf2jKuYFBcPwWcD-2" value="" style="shape=tableRow;horizontal=0;startSize=0;swimlaneHead=0;swimlaneBody=0;strokeColor=inherit;top=0;left=0;bottom=0;right=0;collapsible=0;dropTarget=0;fillColor=none;points=[[0,0.5],[1,0.5]];portConstraint=eastwest;" vertex="1" parent="qCKaYqf2jKuYFBcPwWcD-1">
          <mxGeometry width="240" height="30" as="geometry" />
        </mxCell>
        <mxCell id="qCKaYqf2jKuYFBcPwWcD-3" value="&lt;b&gt;&lt;font style=&quot;font-size: 18px;&quot;&gt;Record&lt;/font&gt;&lt;/b&gt;" style="shape=partialRectangle;html=1;whiteSpace=wrap;connectable=0;strokeColor=inherit;overflow=hidden;fillColor=none;top=0;left=0;bottom=0;right=0;pointerEvents=1;" vertex="1" parent="qCKaYqf2jKuYFBcPwWcD-2">
          <mxGeometry width="240" height="30" as="geometry">
            <mxRectangle width="240" height="30" as="alternateBounds" />
          </mxGeometry>
        </mxCell>
        <mxCell id="qCKaYqf2jKuYFBcPwWcD-4" value="" style="shape=tableRow;horizontal=0;startSize=0;swimlaneHead=0;swimlaneBody=0;strokeColor=inherit;top=0;left=0;bottom=0;right=0;collapsible=0;dropTarget=0;fillColor=none;points=[[0,0.5],[1,0.5]];portConstraint=eastwest;" vertex="1" parent="qCKaYqf2jKuYFBcPwWcD-1">
          <mxGeometry y="30" width="240" height="31" as="geometry" />
        </mxCell>
        <mxCell id="qCKaYqf2jKuYFBcPwWcD-5" value="-name: Name" style="shape=partialRectangle;html=1;whiteSpace=wrap;connectable=0;strokeColor=inherit;overflow=hidden;fillColor=none;top=0;left=0;bottom=0;right=0;pointerEvents=1;" vertex="1" parent="qCKaYqf2jKuYFBcPwWcD-4">
          <mxGeometry width="240" height="31" as="geometry">
            <mxRectangle width="240" height="31" as="alternateBounds" />
          </mxGeometry>
        </mxCell>
        <mxCell id="qCKaYqf2jKuYFBcPwWcD-6" value="" style="shape=tableRow;horizontal=0;startSize=0;swimlaneHead=0;swimlaneBody=0;strokeColor=inherit;top=0;left=0;bottom=0;right=0;collapsible=0;dropTarget=0;fillColor=none;points=[[0,0.5],[1,0.5]];portConstraint=eastwest;" vertex="1" parent="qCKaYqf2jKuYFBcPwWcD-1">
          <mxGeometry y="61" width="240" height="29" as="geometry" />
        </mxCell>
        <mxCell id="qCKaYqf2jKuYFBcPwWcD-7" value="-phones: list[Phone]" style="shape=partialRectangle;html=1;whiteSpace=wrap;connectable=0;strokeColor=inherit;overflow=hidden;fillColor=none;top=0;left=0;bottom=0;right=0;pointerEvents=1;" vertex="1" parent="qCKaYqf2jKuYFBcPwWcD-6">
          <mxGeometry width="240" height="29" as="geometry">
            <mxRectangle width="240" height="29" as="alternateBounds" />
          </mxGeometry>
        </mxCell>
        <mxCell id="qCKaYqf2jKuYFBcPwWcD-8" value="" style="shape=tableRow;horizontal=0;startSize=0;swimlaneHead=0;swimlaneBody=0;strokeColor=inherit;top=0;left=0;bottom=0;right=0;collapsible=0;dropTarget=0;fillColor=none;points=[[0,0.5],[1,0.5]];portConstraint=eastwest;" vertex="1" parent="qCKaYqf2jKuYFBcPwWcD-1">
          <mxGeometry y="90" width="240" height="30" as="geometry" />
        </mxCell>
        <mxCell id="qCKaYqf2jKuYFBcPwWcD-9" value="-birthday: Birthday" style="shape=partialRectangle;html=1;whiteSpace=wrap;connectable=0;strokeColor=inherit;overflow=hidden;fillColor=none;top=0;left=0;bottom=0;right=0;pointerEvents=1;" vertex="1" parent="qCKaYqf2jKuYFBcPwWcD-8">
          <mxGeometry width="240" height="30" as="geometry">
            <mxRectangle width="240" height="30" as="alternateBounds" />
          </mxGeometry>
        </mxCell>
        <mxCell id="qCKaYqf2jKuYFBcPwWcD-10" value="" style="shape=tableRow;horizontal=0;startSize=0;swimlaneHead=0;swimlaneBody=0;strokeColor=inherit;top=0;left=0;bottom=0;right=0;collapsible=0;dropTarget=0;fillColor=none;points=[[0,0.5],[1,0.5]];portConstraint=eastwest;" vertex="1" parent="qCKaYqf2jKuYFBcPwWcD-1">
          <mxGeometry y="120" width="240" height="31" as="geometry" />
        </mxCell>
        <mxCell id="qCKaYqf2jKuYFBcPwWcD-11" value="+add_birthday(birthday: str): None" style="shape=partialRectangle;html=1;whiteSpace=wrap;connectable=0;strokeColor=inherit;overflow=hidden;fillColor=none;top=0;left=0;bottom=0;right=0;pointerEvents=1;" vertex="1" parent="qCKaYqf2jKuYFBcPwWcD-10">
          <mxGeometry width="240" height="31" as="geometry">
            <mxRectangle width="240" height="31" as="alternateBounds" />
          </mxGeometry>
        </mxCell>
        <mxCell id="qCKaYqf2jKuYFBcPwWcD-12" value="" style="shape=tableRow;horizontal=0;startSize=0;swimlaneHead=0;swimlaneBody=0;strokeColor=inherit;top=0;left=0;bottom=0;right=0;collapsible=0;dropTarget=0;fillColor=none;points=[[0,0.5],[1,0.5]];portConstraint=eastwest;" vertex="1" parent="qCKaYqf2jKuYFBcPwWcD-1">
          <mxGeometry y="151" width="240" height="30" as="geometry" />
        </mxCell>
        <mxCell id="qCKaYqf2jKuYFBcPwWcD-13" value="+add_phone(phone: str): None" style="shape=partialRectangle;html=1;whiteSpace=wrap;connectable=0;strokeColor=inherit;overflow=hidden;fillColor=none;top=0;left=0;bottom=0;right=0;pointerEvents=1;" vertex="1" parent="qCKaYqf2jKuYFBcPwWcD-12">
          <mxGeometry width="240" height="30" as="geometry">
            <mxRectangle width="240" height="30" as="alternateBounds" />
          </mxGeometry>
        </mxCell>
        <mxCell id="qCKaYqf2jKuYFBcPwWcD-14" value="" style="shape=tableRow;horizontal=0;startSize=0;swimlaneHead=0;swimlaneBody=0;strokeColor=inherit;top=0;left=0;bottom=0;right=0;collapsible=0;dropTarget=0;fillColor=none;points=[[0,0.5],[1,0.5]];portConstraint=eastwest;" vertex="1" parent="qCKaYqf2jKuYFBcPwWcD-1">
          <mxGeometry y="181" width="240" height="30" as="geometry" />
        </mxCell>
        <mxCell id="qCKaYqf2jKuYFBcPwWcD-15" value="+remove_phone(phone: str): None" style="shape=partialRectangle;html=1;whiteSpace=wrap;connectable=0;strokeColor=inherit;overflow=hidden;fillColor=none;top=0;left=0;bottom=0;right=0;pointerEvents=1;" vertex="1" parent="qCKaYqf2jKuYFBcPwWcD-14">
          <mxGeometry width="240" height="30" as="geometry">
            <mxRectangle width="240" height="30" as="alternateBounds" />
          </mxGeometry>
        </mxCell>
        <mxCell id="qCKaYqf2jKuYFBcPwWcD-16" value="" style="shape=tableRow;horizontal=0;startSize=0;swimlaneHead=0;swimlaneBody=0;strokeColor=inherit;top=0;left=0;bottom=0;right=0;collapsible=0;dropTarget=0;fillColor=none;points=[[0,0.5],[1,0.5]];portConstraint=eastwest;" vertex="1" parent="qCKaYqf2jKuYFBcPwWcD-1">
          <mxGeometry y="211" width="240" height="39" as="geometry" />
        </mxCell>
        <mxCell id="qCKaYqf2jKuYFBcPwWcD-17" value="+edit_phone(old_phone: str, new_phone: str): None" style="shape=partialRectangle;html=1;whiteSpace=wrap;connectable=0;strokeColor=inherit;overflow=hidden;fillColor=none;top=0;left=0;bottom=0;right=0;pointerEvents=1;" vertex="1" parent="qCKaYqf2jKuYFBcPwWcD-16">
          <mxGeometry width="240" height="39" as="geometry">
            <mxRectangle width="240" height="39" as="alternateBounds" />
          </mxGeometry>
        </mxCell>
        <mxCell id="qCKaYqf2jKuYFBcPwWcD-18" value="" style="shape=tableRow;horizontal=0;startSize=0;swimlaneHead=0;swimlaneBody=0;strokeColor=inherit;top=0;left=0;bottom=0;right=0;collapsible=0;dropTarget=0;fillColor=none;points=[[0,0.5],[1,0.5]];portConstraint=eastwest;" vertex="1" parent="qCKaYqf2jKuYFBcPwWcD-1">
          <mxGeometry y="250" width="240" height="30" as="geometry" />
        </mxCell>
        <mxCell id="qCKaYqf2jKuYFBcPwWcD-19" value="+find_phone(phone: str): Phone" style="shape=partialRectangle;html=1;whiteSpace=wrap;connectable=0;strokeColor=inherit;overflow=hidden;fillColor=none;top=0;left=0;bottom=0;right=0;pointerEvents=1;" vertex="1" parent="qCKaYqf2jKuYFBcPwWcD-18">
          <mxGeometry width="240" height="30" as="geometry">
            <mxRectangle width="240" height="30" as="alternateBounds" />
          </mxGeometry>
        </mxCell>
        <mxCell id="qCKaYqf2jKuYFBcPwWcD-20" value="" style="shape=table;startSize=0;container=1;collapsible=0;childLayout=tableLayout;" vertex="1" parent="1">
          <mxGeometry x="40" y="320" width="200" height="240" as="geometry" />
        </mxCell>
        <mxCell id="qCKaYqf2jKuYFBcPwWcD-21" value="" style="shape=tableRow;horizontal=0;startSize=0;swimlaneHead=0;swimlaneBody=0;strokeColor=inherit;top=0;left=0;bottom=0;right=0;collapsible=0;dropTarget=0;fillColor=none;points=[[0,0.5],[1,0.5]];portConstraint=eastwest;" vertex="1" parent="qCKaYqf2jKuYFBcPwWcD-20">
          <mxGeometry width="200" height="32" as="geometry" />
        </mxCell>
        <mxCell id="qCKaYqf2jKuYFBcPwWcD-22" value="&lt;b&gt;&lt;font style=&quot;font-size: 18px;&quot;&gt;AddressBook&lt;/font&gt;&lt;/b&gt;" style="shape=partialRectangle;html=1;whiteSpace=wrap;connectable=0;strokeColor=inherit;overflow=hidden;fillColor=none;top=0;left=0;bottom=0;right=0;pointerEvents=1;" vertex="1" parent="qCKaYqf2jKuYFBcPwWcD-21">
          <mxGeometry width="200" height="32" as="geometry">
            <mxRectangle width="200" height="32" as="alternateBounds" />
          </mxGeometry>
        </mxCell>
        <mxCell id="qCKaYqf2jKuYFBcPwWcD-23" value="" style="shape=tableRow;horizontal=0;startSize=0;swimlaneHead=0;swimlaneBody=0;strokeColor=inherit;top=0;left=0;bottom=0;right=0;collapsible=0;dropTarget=0;fillColor=none;points=[[0,0.5],[1,0.5]];portConstraint=eastwest;" vertex="1" parent="qCKaYqf2jKuYFBcPwWcD-20">
          <mxGeometry y="32" width="200" height="24" as="geometry" />
        </mxCell>
        <mxCell id="qCKaYqf2jKuYFBcPwWcD-24" value="&lt;div&gt;-data: dict&lt;br&gt;&lt;/div&gt;&lt;div&gt;&lt;br&gt;&lt;/div&gt;" style="shape=partialRectangle;html=1;whiteSpace=wrap;connectable=0;strokeColor=inherit;overflow=hidden;fillColor=none;top=0;left=0;bottom=0;right=0;pointerEvents=1;" vertex="1" parent="qCKaYqf2jKuYFBcPwWcD-23">
          <mxGeometry width="200" height="24" as="geometry">
            <mxRectangle width="200" height="24" as="alternateBounds" />
          </mxGeometry>
        </mxCell>
        <mxCell id="qCKaYqf2jKuYFBcPwWcD-25" value="" style="shape=tableRow;horizontal=0;startSize=0;swimlaneHead=0;swimlaneBody=0;strokeColor=inherit;top=0;left=0;bottom=0;right=0;collapsible=0;dropTarget=0;fillColor=none;points=[[0,0.5],[1,0.5]];portConstraint=eastwest;" vertex="1" parent="qCKaYqf2jKuYFBcPwWcD-20">
          <mxGeometry y="56" width="200" height="29" as="geometry" />
        </mxCell>
        <mxCell id="qCKaYqf2jKuYFBcPwWcD-26" value="+add_record(record: Record): None" style="shape=partialRectangle;html=1;whiteSpace=wrap;connectable=0;strokeColor=inherit;overflow=hidden;fillColor=none;top=0;left=0;bottom=0;right=0;pointerEvents=1;" vertex="1" parent="qCKaYqf2jKuYFBcPwWcD-25">
          <mxGeometry width="200" height="29" as="geometry">
            <mxRectangle width="200" height="29" as="alternateBounds" />
          </mxGeometry>
        </mxCell>
        <mxCell id="qCKaYqf2jKuYFBcPwWcD-27" value="" style="shape=tableRow;horizontal=0;startSize=0;swimlaneHead=0;swimlaneBody=0;strokeColor=inherit;top=0;left=0;bottom=0;right=0;collapsible=0;dropTarget=0;fillColor=none;points=[[0,0.5],[1,0.5]];portConstraint=eastwest;" vertex="1" parent="qCKaYqf2jKuYFBcPwWcD-20">
          <mxGeometry y="85" width="200" height="23" as="geometry" />
        </mxCell>
        <mxCell id="qCKaYqf2jKuYFBcPwWcD-28" value="+find(name: str): Record" style="shape=partialRectangle;html=1;whiteSpace=wrap;connectable=0;strokeColor=inherit;overflow=hidden;fillColor=none;top=0;left=0;bottom=0;right=0;pointerEvents=1;" vertex="1" parent="qCKaYqf2jKuYFBcPwWcD-27">
          <mxGeometry width="200" height="23" as="geometry">
            <mxRectangle width="200" height="23" as="alternateBounds" />
          </mxGeometry>
        </mxCell>
        <mxCell id="qCKaYqf2jKuYFBcPwWcD-29" value="" style="shape=tableRow;horizontal=0;startSize=0;swimlaneHead=0;swimlaneBody=0;strokeColor=inherit;top=0;left=0;bottom=0;right=0;collapsible=0;dropTarget=0;fillColor=none;points=[[0,0.5],[1,0.5]];portConstraint=eastwest;" vertex="1" parent="qCKaYqf2jKuYFBcPwWcD-20">
          <mxGeometry y="108" width="200" height="57" as="geometry" />
        </mxCell>
        <mxCell id="qCKaYqf2jKuYFBcPwWcD-30" value="+get_upcoming_birthdays(days: int): list[dict]&lt;div&gt;+adjust_for_weekend(date): date&lt;/div&gt;" style="shape=partialRectangle;html=1;whiteSpace=wrap;connectable=0;strokeColor=inherit;overflow=hidden;fillColor=none;top=0;left=0;bottom=0;right=0;pointerEvents=1;" vertex="1" parent="qCKaYqf2jKuYFBcPwWcD-29">
          <mxGeometry width="200" height="57" as="geometry">
            <mxRectangle width="200" height="57" as="alternateBounds" />
          </mxGeometry>
        </mxCell>
        <mxCell id="qCKaYqf2jKuYFBcPwWcD-31" value="" style="shape=tableRow;horizontal=0;startSize=0;swimlaneHead=0;swimlaneBody=0;strokeColor=inherit;top=0;left=0;bottom=0;right=0;collapsible=0;dropTarget=0;fillColor=none;points=[[0,0.5],[1,0.5]];portConstraint=eastwest;" vertex="1" parent="qCKaYqf2jKuYFBcPwWcD-20">
          <mxGeometry y="165" width="200" height="32" as="geometry" />
        </mxCell>
        <mxCell id="qCKaYqf2jKuYFBcPwWcD-32" value="+add_contact(name): str" style="shape=partialRectangle;html=1;whiteSpace=wrap;connectable=0;strokeColor=inherit;overflow=hidden;fillColor=none;top=0;left=0;bottom=0;right=0;pointerEvents=1;" vertex="1" parent="qCKaYqf2jKuYFBcPwWcD-31">
          <mxGeometry width="200" height="32" as="geometry">
            <mxRectangle width="200" height="32" as="alternateBounds" />
          </mxGeometry>
        </mxCell>
        <mxCell id="qCKaYqf2jKuYFBcPwWcD-33" value="" style="shape=tableRow;horizontal=0;startSize=0;swimlaneHead=0;swimlaneBody=0;strokeColor=inherit;top=0;left=0;bottom=0;right=0;collapsible=0;dropTarget=0;fillColor=none;points=[[0,0.5],[1,0.5]];portConstraint=eastwest;" vertex="1" parent="qCKaYqf2jKuYFBcPwWcD-20">
          <mxGeometry y="197" width="200" height="43" as="geometry" />
        </mxCell>
        <mxCell id="qCKaYqf2jKuYFBcPwWcD-34" value="+delete_contact(name): str" style="shape=partialRectangle;html=1;whiteSpace=wrap;connectable=0;strokeColor=inherit;overflow=hidden;fillColor=none;top=0;left=0;bottom=0;right=0;pointerEvents=1;" vertex="1" parent="qCKaYqf2jKuYFBcPwWcD-33">
          <mxGeometry width="200" height="43" as="geometry">
            <mxRectangle width="200" height="43" as="alternateBounds" />
          </mxGeometry>
        </mxCell>
        <mxCell id="qCKaYqf2jKuYFBcPwWcD-35" value="+delete_phone(name,phone): str" style="rounded=0;whiteSpace=wrap;html=1;" vertex="1" parent="1">
          <mxGeometry x="40" y="560" width="200" height="38" as="geometry" />
        </mxCell>
        <mxCell id="qCKaYqf2jKuYFBcPwWcD-37" value="+change_phone(old_phone, new_phone): str" style="rounded=0;whiteSpace=wrap;html=1;" vertex="1" parent="1">
          <mxGeometry x="40" y="598" width="200" height="40" as="geometry" />
        </mxCell>
        <mxCell id="qCKaYqf2jKuYFBcPwWcD-38" value="+show_phone(phone): str" style="rounded=0;whiteSpace=wrap;html=1;" vertex="1" parent="1">
          <mxGeometry x="40" y="638" width="200" height="40" as="geometry" />
        </mxCell>
        <mxCell id="qCKaYqf2jKuYFBcPwWcD-39" value="+show_all(records_info): str" style="rounded=0;whiteSpace=wrap;html=1;" vertex="1" parent="1">
          <mxGeometry x="40" y="678" width="200" height="40" as="geometry" />
        </mxCell>
        <mxCell id="qCKaYqf2jKuYFBcPwWcD-40" value="+add_birthday(name, birthday): str" style="rounded=0;whiteSpace=wrap;html=1;" vertex="1" parent="1">
          <mxGeometry x="40" y="718" width="200" height="40" as="geometry" />
        </mxCell>
        <mxCell id="qCKaYqf2jKuYFBcPwWcD-41" value="+show_birthday(name): str" style="rounded=0;whiteSpace=wrap;html=1;" vertex="1" parent="1">
          <mxGeometry x="40" y="758" width="200" height="40" as="geometry" />
        </mxCell>
        <mxCell id="qCKaYqf2jKuYFBcPwWcD-42" value="+birthdays(record): get_upcoming_birthdays" style="rounded=0;whiteSpace=wrap;html=1;" vertex="1" parent="1">
          <mxGeometry x="40" y="798" width="200" height="40" as="geometry" />
        </mxCell>
        <mxCell id="qCKaYqf2jKuYFBcPwWcD-43" value="+save_data(file): None" style="rounded=0;whiteSpace=wrap;html=1;" vertex="1" parent="1">
          <mxGeometry x="40" y="838" width="200" height="40" as="geometry" />
        </mxCell>
        <mxCell id="qCKaYqf2jKuYFBcPwWcD-44" value="+load_data(file): None" style="rounded=0;whiteSpace=wrap;html=1;" vertex="1" parent="1">
          <mxGeometry x="40" y="878" width="200" height="40" as="geometry" />
        </mxCell>
        <mxCell id="qCKaYqf2jKuYFBcPwWcD-45" value="&lt;b&gt;&lt;font style=&quot;font-size: 18px;&quot;&gt;Info&lt;/font&gt;&lt;/b&gt;" style="swimlane;fontStyle=0;childLayout=stackLayout;horizontal=1;startSize=30;horizontalStack=0;resizeParent=1;resizeParentMax=0;resizeLast=0;collapsible=1;marginBottom=0;whiteSpace=wrap;html=1;" vertex="1" parent="1">
          <mxGeometry x="560" y="718" width="240" height="60" as="geometry" />
        </mxCell>
        <mxCell id="qCKaYqf2jKuYFBcPwWcD-46" value="+command_help(information): str" style="text;strokeColor=none;fillColor=none;align=left;verticalAlign=middle;spacingLeft=4;spacingRight=4;overflow=hidden;points=[[0,0.5],[1,0.5]];portConstraint=eastwest;rotatable=0;whiteSpace=wrap;html=1;" vertex="1" parent="qCKaYqf2jKuYFBcPwWcD-45">
          <mxGeometry y="30" width="240" height="30" as="geometry" />
        </mxCell>
        <mxCell id="qCKaYqf2jKuYFBcPwWcD-51" value="" style="endArrow=block;startArrow=block;endFill=1;startFill=1;html=1;rounded=0;entryX=-0.012;entryY=0.956;entryDx=0;entryDy=0;entryPerimeter=0;exitX=1.002;exitY=0.187;exitDx=0;exitDy=0;exitPerimeter=0;" edge="1" parent="1" source="qCKaYqf2jKuYFBcPwWcD-29" target="qCKaYqf2jKuYFBcPwWcD-8">
          <mxGeometry width="160" relative="1" as="geometry">
            <mxPoint x="250" y="430" as="sourcePoint" />
            <mxPoint x="490" y="430" as="targetPoint" />
          </mxGeometry>
        </mxCell>
        <mxCell id="qCKaYqf2jKuYFBcPwWcD-53" value="" style="endArrow=none;html=1;rounded=0;" edge="1" parent="1">
          <mxGeometry width="50" height="50" relative="1" as="geometry">
            <mxPoint x="140" y="320" as="sourcePoint" />
            <mxPoint x="140" y="250" as="targetPoint" />
          </mxGeometry>
        </mxCell>
        <mxCell id="qCKaYqf2jKuYFBcPwWcD-54" value="" style="endArrow=none;html=1;rounded=0;" edge="1" parent="1">
          <mxGeometry width="50" height="50" relative="1" as="geometry">
            <mxPoint x="679.5" y="320" as="sourcePoint" />
            <mxPoint x="679.5" y="250" as="targetPoint" />
          </mxGeometry>
        </mxCell>
        <mxCell id="qCKaYqf2jKuYFBcPwWcD-55" value="" style="endArrow=none;html=1;rounded=0;entryX=0.265;entryY=1.044;entryDx=0;entryDy=0;entryPerimeter=0;exitX=0.502;exitY=-0.083;exitDx=0;exitDy=0;exitPerimeter=0;" edge="1" parent="1" source="qCKaYqf2jKuYFBcPwWcD-21" target="NT-Q8TbCKtP1dzU-l-f0-29">
          <mxGeometry width="50" height="50" relative="1" as="geometry">
            <mxPoint x="240" y="330" as="sourcePoint" />
            <mxPoint x="240" y="260" as="targetPoint" />
          </mxGeometry>
        </mxCell>
        <mxCell id="qCKaYqf2jKuYFBcPwWcD-56" value="" style="endArrow=none;html=1;rounded=0;" edge="1" parent="1">
          <mxGeometry width="50" height="50" relative="1" as="geometry">
            <mxPoint x="140" y="320" as="sourcePoint" />
            <mxPoint x="560" y="250" as="targetPoint" />
          </mxGeometry>
        </mxCell>
        <mxCell id="qCKaYqf2jKuYFBcPwWcD-57" value="" style="endArrow=none;html=1;rounded=0;exitX=0.488;exitY=-0.044;exitDx=0;exitDy=0;exitPerimeter=0;entryX=0.99;entryY=0.978;entryDx=0;entryDy=0;entryPerimeter=0;" edge="1" parent="1" source="qCKaYqf2jKuYFBcPwWcD-2" target="NT-Q8TbCKtP1dzU-l-f0-29">
          <mxGeometry width="50" height="50" relative="1" as="geometry">
            <mxPoint x="414" y="360" as="sourcePoint" />
            <mxPoint x="490" y="230" as="targetPoint" />
          </mxGeometry>
        </mxCell>
        <mxCell id="qCKaYqf2jKuYFBcPwWcD-58" value="" style="endArrow=none;html=1;rounded=0;entryX=0.995;entryY=1.022;entryDx=0;entryDy=0;entryPerimeter=0;exitX=0.5;exitY=0;exitDx=0;exitDy=0;exitPerimeter=0;" edge="1" parent="1" source="qCKaYqf2jKuYFBcPwWcD-2" target="NT-Q8TbCKtP1dzU-l-f0-26">
          <mxGeometry width="50" height="50" relative="1" as="geometry">
            <mxPoint x="470" y="360" as="sourcePoint" />
            <mxPoint x="230" y="250" as="targetPoint" />
          </mxGeometry>
        </mxCell>
        <mxCell id="qCKaYqf2jKuYFBcPwWcD-59" value="«interface»&lt;br&gt;+user_input(cmd, args): cmd, args" style="html=1;whiteSpace=wrap;" vertex="1" parent="1">
          <mxGeometry x="359" y="480" width="121" height="80" as="geometry" />
        </mxCell>
        <mxCell id="qCKaYqf2jKuYFBcPwWcD-60" value="&lt;b&gt;«interface»&lt;br&gt;@input_error(args, kwargs):&amp;nbsp; ValueError, IndexError, KeyError&amp;nbsp;&lt;/b&gt;" style="html=1;whiteSpace=wrap;" vertex="1" parent="1">
          <mxGeometry x="359" y="798" width="121" height="122" as="geometry" />
        </mxCell>
        <mxCell id="qCKaYqf2jKuYFBcPwWcD-62" value="" style="endArrow=classic;html=1;rounded=0;entryX=1;entryY=0;entryDx=0;entryDy=0;exitX=0;exitY=0;exitDx=0;exitDy=0;" edge="1" parent="1" source="qCKaYqf2jKuYFBcPwWcD-60" target="qCKaYqf2jKuYFBcPwWcD-37">
          <mxGeometry width="50" height="50" relative="1" as="geometry">
            <mxPoint x="359" y="678" as="sourcePoint" />
            <mxPoint x="439" y="600" as="targetPoint" />
            <Array as="points" />
          </mxGeometry>
        </mxCell>
        <mxCell id="qCKaYqf2jKuYFBcPwWcD-63" value="«interface»&lt;br&gt;&lt;b&gt;+ main(date, save_data, load_data,&amp;nbsp; user_input): command, args&lt;/b&gt;" style="html=1;whiteSpace=wrap;" vertex="1" parent="1">
          <mxGeometry x="360" y="638" width="120" height="122" as="geometry" />
        </mxCell>
        <mxCell id="qCKaYqf2jKuYFBcPwWcD-64" value="" style="endArrow=classic;html=1;rounded=0;entryX=-0.015;entryY=0.709;entryDx=0;entryDy=0;entryPerimeter=0;" edge="1" parent="1" target="qCKaYqf2jKuYFBcPwWcD-16">
          <mxGeometry width="50" height="50" relative="1" as="geometry">
            <mxPoint x="480" y="637" as="sourcePoint" />
            <mxPoint x="560" y="598" as="targetPoint" />
            <Array as="points" />
          </mxGeometry>
        </mxCell>
        <mxCell id="qCKaYqf2jKuYFBcPwWcD-65" value="" style="endArrow=classic;html=1;rounded=0;entryX=1;entryY=0.5;entryDx=0;entryDy=0;" edge="1" parent="1" target="qCKaYqf2jKuYFBcPwWcD-33">
          <mxGeometry width="50" height="50" relative="1" as="geometry">
            <mxPoint x="359" y="638" as="sourcePoint" />
            <mxPoint x="435" y="560" as="targetPoint" />
            <Array as="points" />
          </mxGeometry>
        </mxCell>
        <mxCell id="qCKaYqf2jKuYFBcPwWcD-67" value="" style="endArrow=classic;html=1;rounded=0;exitX=0.5;exitY=0;exitDx=0;exitDy=0;" edge="1" parent="1" source="qCKaYqf2jKuYFBcPwWcD-63">
          <mxGeometry width="50" height="50" relative="1" as="geometry">
            <mxPoint x="420" y="628" as="sourcePoint" />
            <mxPoint x="419" y="560" as="targetPoint" />
            <Array as="points" />
          </mxGeometry>
        </mxCell>
        <mxCell id="qCKaYqf2jKuYFBcPwWcD-68" value="" style="endArrow=classic;html=1;rounded=0;entryX=-0.007;entryY=0.089;entryDx=0;entryDy=0;entryPerimeter=0;" edge="1" parent="1" target="qCKaYqf2jKuYFBcPwWcD-46">
          <mxGeometry width="50" height="50" relative="1" as="geometry">
            <mxPoint x="480" y="718" as="sourcePoint" />
            <mxPoint x="556" y="640" as="targetPoint" />
            <Array as="points" />
          </mxGeometry>
        </mxCell>
      </root>
    </mxGraphModel>
  </diagram>
</mxfile>
